<svg viewBox="0 0 1162 223" fill="none" xmlns="http://www.w3.org/2000/svg">
<mask id="mask0_570_238" style="mask-type:alpha" maskUnits="userSpaceOnUse" x="0" y="0" width="1162" height="223">
<path d="M0 0H1162V223H0V0Z" fill="#D9D9D9"/>
</mask>
<g mask="url(#mask0_570_238)">
<path d="M48.0749 63.877C48.0749 38.703 74.7839 28.265 116.536 28.265C155.832 28.265 181.62 40.852 181.62 72.78H228.591C229.512 17.213 181.927 -3.97001 116.536 -3.97001C39.7859 -3.97001 -1.96613 20.283 -1.96613 61.421C-1.96613 157.512 183.155 92.735 183.155 151.986C183.155 173.783 160.13 185.142 112.238 185.142C71.0999 185.142 44.6979 173.169 45.0049 144.004H-5.03613C-5.03613 173.476 10.9279 218.298 112.545 218.298C178.55 218.298 231.661 196.808 231.661 151.372C231.661 62.035 48.0749 117.909 48.0749 63.877Z" fill="#EBEBEB"/>
<path d="M394.057 -5.505C321.605 -5.505 264.503 43.922 264.503 106.857C264.503 171.02 320.07 218.912 394.057 218.912C468.351 218.912 523.918 171.02 523.918 106.857C523.611 42.387 468.351 -5.505 394.057 -5.505ZM394.057 186.37C348.621 186.37 312.088 158.126 312.088 108.085C312.088 58.658 348.621 27.958 395.899 28.572C444.712 29.186 477.254 58.044 477.254 108.085C477.254 157.512 440.107 186.37 394.057 186.37Z" fill="#EBEBEB"/>
<path d="M565.094 181.151C565.094 200.799 578.295 214 597.943 214H719.208V179.002H607.767V-0.900009H565.094V181.151Z" fill="#EBEBEB"/>
<path d="M744.392 214H907.716V179.002H850V34.098H907.716V-0.900009H744.392V34.098H803.95V179.002H744.392V214Z" fill="#EBEBEB"/>
<path d="M1166.31 62.956C1166.31 15.371 1128.54 -0.900009 1088.02 -0.900009H961.537V214H1003.6V130.496L1097.23 129.575C1143.28 129.268 1166.31 100.103 1166.31 62.956ZM1003.6 33.484H1085.26C1105.52 33.484 1124.55 43.001 1124.55 64.798C1124.55 86.288 1105.52 97.647 1084.64 97.647H1003.6V33.484Z" fill="#EBEBEB"/>
</g>
</svg>
