<svg width="100%" viewBox="0 0 1162 223" fill="none" xmlns="http://www.w3.org/2000/svg"><mask id="a" style="mask-type:alpha" maskUnits="userSpaceOnUse" x="0" y="0" width="1162" height="223"><path d="M0 0h1162v223H0V0Z" fill="#D9D9D9"/></mask><g mask="url(#a)" fill="#EBEBEB"><path d="M48.0749 63.877c0-25.174 26.709-35.612 68.4611-35.612 39.296 0 65.084 12.587 65.084 44.515h46.971c.921-55.567-46.664-76.75001-112.055-76.75001C39.7859-3.97001-1.96613 20.283-1.96613 61.421c0 96.091 185.12113 31.314 185.12113 90.565 0 21.797-23.025 33.156-70.917 33.156-41.1381 0-67.5401-11.973-67.2331-41.138H-5.03613c0 29.472 15.96403 74.294 117.58113 74.294 66.005 0 119.116-21.49 119.116-66.926 0-89.337-183.5861-33.463-183.5861-87.495ZM394.057-5.505c-72.452 0-129.554 49.427-129.554 112.362 0 64.163 55.567 112.055 129.554 112.055 74.294 0 129.861-47.892 129.861-112.055-.307-64.47-55.567-112.362-129.861-112.362Zm0 191.875c-45.436 0-81.969-28.244-81.969-78.285 0-49.427 36.533-80.127 83.811-79.513 48.813.614 81.355 29.472 81.355 79.513 0 49.427-37.147 78.285-83.197 78.285ZM565.094 181.151c0 19.648 13.201 32.849 32.849 32.849h121.265v-34.998H607.767V-.9h-42.673v182.051ZM744.392 214h163.324v-34.998H850V34.098h57.716V-.9H744.392v34.998h59.558v144.904h-59.558V214ZM1166.31 62.956c0-47.585-37.77-63.856-78.29-63.856H961.537V214h42.063v-83.504l93.63-.921c46.05-.307 69.08-29.472 69.08-66.619ZM1003.6 33.484h81.66c20.26 0 39.29 9.517 39.29 31.314 0 21.49-19.03 32.849-39.91 32.849h-81.04V33.484Z"/><path d="M-5.00014 213H1172v10H-5.00014v-10Z"/></g></svg>